<svg xmlns="http://www.w3.org/2000/svg" xmlns:svg="http://www.w3.org/2000/svg" xmlns:xlink="http://www.w3.org/1999/xlink" id="svg8" width="512" height="512" version="1.1" viewBox="0 0 135.467 135.467"><defs id="defs2"><linearGradient id="linearGradient866"><stop style="stop-color:#b3b3b3;stop-opacity:1" id="stop862" offset="0"/><stop style="stop-color:#999;stop-opacity:1" id="stop864" offset="1"/></linearGradient><linearGradient id="linearGradient942"><stop style="stop-color:#d35f5f;stop-opacity:1" id="stop938" offset="0"/><stop style="stop-color:#a02c2c;stop-opacity:1" id="stop940" offset="1"/></linearGradient><linearGradient id="linearGradient934"><stop style="stop-color:#fd5;stop-opacity:1" id="stop930" offset="0"/><stop style="stop-color:#fc0;stop-opacity:1" id="stop932" offset="1"/></linearGradient><linearGradient id="linearGradient926"><stop style="stop-color:#fc0;stop-opacity:1" id="stop922" offset="0"/><stop style="stop-color:#fd5;stop-opacity:1" id="stop924" offset="1"/></linearGradient><linearGradient id="linearGradient918"><stop style="stop-color:#f95;stop-opacity:1" id="stop914" offset="0"/><stop style="stop-color:#ef6910;stop-opacity:1" id="stop916" offset="1"/></linearGradient><linearGradient id="linearGradient912"><stop id="stop908" offset="0" style="stop-color:#f95;stop-opacity:1"/><stop id="stop910" offset="1" style="stop-color:#ef6910;stop-opacity:1"/></linearGradient><linearGradient id="linearGradient902"><stop style="stop-color:#f95;stop-opacity:1" id="stop898" offset="0"/><stop style="stop-color:#ef6910;stop-opacity:1" id="stop900" offset="1"/></linearGradient><linearGradient id="linearGradient894"><stop style="stop-color:#fff;stop-opacity:1" id="stop890" offset="0"/><stop style="stop-color:#e6e6e6;stop-opacity:1" id="stop892" offset="1"/></linearGradient><radialGradient id="radialGradient896" cx="41.312" cy="70.403" r="41.54" fx="41.312" fy="70.403" gradientTransform="matrix(0.98882672,0.9888267,-0.698762,0.69876202,49.656397,-14.841033)" gradientUnits="userSpaceOnUse" xlink:href="#linearGradient894"/><radialGradient id="radialGradient904" cx="87.897" cy="92.174" r="8.467" fx="87.897" fy="92.174" gradientUnits="userSpaceOnUse" xlink:href="#linearGradient902"/><radialGradient id="radialGradient906" cx="39.16" cy="91.546" r="8.467" fx="39.16" fy="91.546" gradientTransform="matrix(1.0148709,0.27193385,-0.25881905,0.96592583,23.111406,-7.5296073)" gradientUnits="userSpaceOnUse" xlink:href="#linearGradient912"/><radialGradient id="radialGradient920" cx="61.977" cy="21.01" r="10.054" fx="61.977" fy="21.01" gradientTransform="matrix(1,0,0,1.0428189,0,-0.89961609)" gradientUnits="userSpaceOnUse" xlink:href="#linearGradient918"/><linearGradient id="linearGradient928" x1="-136.364" x2="-128.973" y1="64.322" y2="50.651" gradientUnits="userSpaceOnUse" xlink:href="#linearGradient926"/><linearGradient id="linearGradient936" x1="-2.552" x2="1.06" y1="86.762" y2="101.703" gradientUnits="userSpaceOnUse" xlink:href="#linearGradient934"/><linearGradient id="linearGradient944" x1="67.717" x2="67.717" y1="107.95" y2="118" gradientUnits="userSpaceOnUse" xlink:href="#linearGradient942"/><linearGradient id="linearGradient868" x1="64.631" x2="68.219" y1="41.701" y2="41.988" gradientUnits="userSpaceOnUse" xlink:href="#linearGradient866"/></defs><metadata id="metadata5"/><path id="rect953" d="m 67.701513,11.63677 a 10.052151,10.032967 0 0 0 -10.05215,10.03296 10.052151,10.032967 0 0 0 7.315915,9.64519 L 63.47936,61.5876 c -22.089302,0.57641 -33.260295,5.81398 -36.378592,16.23447 -1.11671,-0.0685 -2.264206,0.0367 -3.407377,0.34241 -5.662248,1.5143 -8.998958,7.28321 -7.481763,12.93467 l 3.285962,12.2416 c 1.315099,4.89865 5.833273,8.05076 10.701077,7.81814 5.385408,12.28078 16.752376,16.90433 37.502846,16.90433 21.080638,0 32.475917,-4.30764 37.754457,-17.02861 4.78385,0.12942 9.18715,-3.00069 10.48253,-7.82588 l 3.28596,-12.24159 c 1.5172,-5.65146 -1.81952,-11.42037 -7.48176,-12.93467 -1.3529,-0.36182 -2.71201,-0.44417 -4.01858,-0.28723 C 103.04721,67.6088 88.113686,62.39652 71.92573,61.63041 l -1.487466,-30.3093 a 10.052151,10.032967 0 0 0 7.315399,-9.65138 10.052151,10.032967 0 0 0 -10.05215,-10.03296 z" style="opacity:1;fill:none;fill-opacity:1;stroke:#1a1a1a;stroke-width:8.45688725;stroke-linecap:butt;stroke-miterlimit:4;stroke-dasharray:none;stroke-dashoffset:0;stroke-opacity:1"/><path style="font-style:normal;font-variant:normal;font-weight:400;font-stretch:normal;font-size:50.79999924px;line-height:1.25;font-family:Chango;-inkscape-font-specification:'Chango, Normal';font-variant-ligatures:normal;font-variant-caps:normal;font-variant-numeric:normal;font-feature-settings:normal;text-align:start;letter-spacing:0;word-spacing:0;writing-mode:lr-tb;text-anchor:start;fill:#1a1a1a;fill-opacity:1;stroke:none;stroke-width:7.36393213" id="path855" d="M 9.6108112,9.525 2.2014738,9.7299 C 0.73349164,9.7299 0,11.0021 0,13.54679 0,14.36475 0.11059726,15.36437 0.33218778,16.54584 1.8555647,23.95271 3.1750001,32.80833 5.4022999,51.376 c 0,4.96836 2.9984901,7.3615 5.1132211,7.3615 1.689554,0 3.22641,-0.49943 4.611296,-1.49911 1.412581,-0.99973 2.382572,-2.40904 2.908827,-4.22665 1.11681,-3.97728 5.24769,-16.87973 7.364357,-16.87973 2.116666,0 6.725734,13.06854 7.364355,16.87973 0.526256,1.81761 1.496243,3.22692 2.90883,4.22665 1.384883,0.99968 2.921739,1.49911 4.611294,1.49911 2.114729,0 5.113218,-3.41208 5.113218,-7.3615 1.16897,-17.50934 3.546738,-27.42329 5.070112,-34.83016 0.221586,-1.18147 0.332189,-2.18109 0.332189,-2.99905 0,-2.54469 -0.733492,-3.81689 -2.20147,-3.81689 L 41.189191,9.525 c -1.024814,0 -1.785961,0.29539 -2.284521,0.88615 -0.498555,0.59072 -0.900239,1.72664 -1.204911,3.40796 -1.514279,4.41797 1.007569,20.04756 -1.716425,20.04756 -2.767897,0 -6.014502,-14.6942 -6.499461,-17.11679 -0.415469,-2.18116 -2.782084,-3.29426 -4.083872,-3.33968 -1.301788,0.0453 -3.668407,1.15852 -4.083875,3.33968 -0.574968,1.40459 -3.731564,17.11679 -6.49946,17.11679 -2.723993,0 -0.710393,-14.24699 -1.716423,-20.04756 -0.304671,-1.68132 -0.706355,-2.81724 -1.20491,-3.40796 C 11.396775,9.82039 10.63563,9.525 9.6108112,9.525 Z"/><path style="font-style:normal;font-variant:normal;font-weight:400;font-stretch:normal;font-size:50.79999924px;line-height:1.25;font-family:Chango;-inkscape-font-specification:'Chango, Normal';font-variant-ligatures:normal;font-variant-caps:normal;font-variant-numeric:normal;font-feature-settings:normal;text-align:start;letter-spacing:0;word-spacing:0;writing-mode:lr-tb;text-anchor:start;fill:#1a1a1a;fill-opacity:1;stroke:none;stroke-width:9.54512691" id="path857" d="m 102.63886,45.02837 v 8.70605 c 0,1.99825 -1.3424,3.06706 -4.027148,3.20645 -3.382664,0 -5.12862,-0.005 -7.081715,-0.13939 -1.319657,-0.093 -2.389008,-0.55766 -3.208087,-1.39414 -0.773572,-0.83645 -1.228625,-1.78912 -1.365144,-2.85793 -0.364039,-4.08941 0.921057,-10.50237 0.921057,-19.23885 0,-8.78295 -1.330551,-15.17264 -1.057578,-19.16912 0.27304,-3.99649 2.252485,-6.01794 5.938377,-6.06444 4.231904,-0.0929 -2.714044,-0.1395 2.109431,-0.1395 4.823492,0 12.714567,0.0696 18.311627,0.20914 10.29468,0.739 18.96463,6.54991 19.11199,17.4337 C 131.90814,37.7501 122.24716,42.7799 113.79402,42.8674 H 108.47 c -0.59159,0 -4.57976,0.20913 -5.08033,0.62734 -0.50055,0.41828 -0.75081,0.92944 -0.75081,1.53355 z m -0.0683,-24.48767 0.13659,12.14975 c 0.0101,0.88285 0.4778,1.32441 1.43337,1.32441 5.40767,-0.46976 12.41557,-0.80514 12.52029,-8.08589 -0.53906,-7.27262 -6.85727,-7.21508 -12.45204,-7.27035 -1.0921,0 -1.63815,0.62737 -1.63815,1.88208 z"/><rect id="rect1572" width="21.167" height="33.867" x="-138.709" y="46.34" rx="10.583" ry="10.583" transform="matrix(-0.96592583,-0.25881905,-0.25881905,0.96592583,0,0)" style="opacity:1;fill:url(#linearGradient928);fill-opacity:1;stroke:none;stroke-width:.26458332;stroke-linecap:butt;stroke-miterlimit:4;stroke-dasharray:none;stroke-dashoffset:0;stroke-opacity:1"/><rect style="opacity:1;fill:url(#linearGradient936);fill-opacity:1;stroke:none;stroke-width:.26458332;stroke-linecap:butt;stroke-miterlimit:4;stroke-dasharray:none;stroke-dashoffset:0;stroke-opacity:1" id="rect1566" width="21.167" height="33.867" x="-7.893" y="81.529" rx="10.583" ry="10.583" transform="rotate(-15)"/><path style="opacity:1;fill:url(#linearGradient868);fill-opacity:1;stroke:none;stroke-width:.21166669;stroke-linecap:butt;stroke-miterlimit:4;stroke-dasharray:none;stroke-dashoffset:0;stroke-opacity:1" id="rect858" d="m 65.297746,24.6153 h 4.838097 l 1.814286,37.04166 h -8.466668 z"/><path id="path1045" d="m 67.716794,61.38333 c 21.166671,0 41.539576,7.40833 41.539576,23.26216 0,33.63254 -9.789571,43.41284 -41.539576,43.41284 -31.749998,0 -41.539581,-10.83863 -41.539581,-43.41284 0,-15.85383 11.906251,-23.26216 41.539581,-23.26216 z" style="opacity:1;fill:none;fill-opacity:1;stroke:#1a1a1a;stroke-width:4.23333311;stroke-linecap:butt;stroke-miterlimit:4;stroke-dasharray:none;stroke-dashoffset:0;stroke-opacity:1"/><path style="opacity:1;fill:url(#radialGradient896);fill-opacity:1;stroke:none;stroke-width:.20891917;stroke-linecap:butt;stroke-miterlimit:4;stroke-dasharray:none;stroke-dashoffset:0;stroke-opacity:1" id="rect868" d="m 67.716794,61.38333 c 21.166671,0 41.539576,7.40833 41.539576,23.26216 0,33.63254 -9.789571,43.41284 -41.539576,43.41284 -31.749998,0 -41.539581,-10.83863 -41.539581,-43.41284 0,-15.85383 11.906251,-23.26216 41.539581,-23.26216 z"/><path id="path837" d="m 67.716795,107.94999 c -3.439583,0 -6.879166,0.52917 -8.466666,1.5875 3e-6,4.67601 3.790659,8.46667 8.466666,8.46667 4.676008,0 8.466664,-3.79066 8.466667,-8.46667 -1.587497,-1.05833 -5.027083,-1.5875 -8.466667,-1.5875 z" style="opacity:1;fill:none;fill-opacity:1;stroke:#1a1a1a;stroke-width:4.23333311;stroke-linecap:butt;stroke-miterlimit:4;stroke-dasharray:none;stroke-dashoffset:0;stroke-opacity:1"/><path style="opacity:1;fill:none;fill-opacity:1;stroke:#1a1a1a;stroke-width:4.23333311;stroke-linecap:butt;stroke-miterlimit:4;stroke-dasharray:none;stroke-dashoffset:0;stroke-opacity:1" id="circle892" d="m 43.110546,84.13749 c -4.676011,0 -8.466667,3.79066 -8.466667,8.46667 0,4.67601 3.790656,8.46667 8.466667,8.46667 4.67601,0 8.466666,-3.79066 8.466666,-8.46667 0,-4.67601 -3.790656,-8.46667 -8.466666,-8.46667 z m 48.947916,0 c -4.67601,0 -8.466667,3.79066 -8.466667,8.46667 0,4.67601 3.790657,8.46667 8.466667,8.46667 4.67601,0 8.466668,-3.79066 8.466668,-8.46667 0,-4.67601 -3.790658,-8.46667 -8.466668,-8.46667 z"/><path style="opacity:1;fill:url(#linearGradient944);fill-opacity:1;stroke:none;stroke-width:6.7733345;stroke-linecap:butt;stroke-miterlimit:4;stroke-dasharray:none;stroke-dashoffset:0;stroke-opacity:1" id="circle876" d="m 76.183459,109.53751 c -3e-6,4.67601 -3.790658,8.46666 -8.466666,8.46666 -4.676008,0 -8.466663,-3.79065 -8.466666,-8.46666 3.175002,-2.11666 13.758338,-2.11666 16.933332,0 z"/><g id="g880" transform="rotate(30,43.110546,92.604165)"><circle id="path872" cx="43.111" cy="92.604" r="8.467" style="opacity:1;fill:url(#radialGradient906);fill-opacity:1;stroke:none;stroke-width:6.7733345;stroke-linecap:butt;stroke-miterlimit:4;stroke-dasharray:none;stroke-dashoffset:0;stroke-opacity:1"/><path style="opacity:.07;fill:#fff;fill-opacity:1;stroke:none;stroke-width:6.7733345;stroke-linecap:butt;stroke-miterlimit:4;stroke-dasharray:none;stroke-dashoffset:0;stroke-opacity:1" id="circle833" d="m 51.577212,92.60417 c 2e-6,4.67601 -3.790654,8.46667 -8.466666,8.46667 5.55625,-4.23334 5.55625,-12.70001 0,-16.93333 4.676008,0 8.466663,3.79065 8.466666,8.46666 z"/></g><g id="g884" transform="rotate(45,92.058464,92.604165)"><circle style="opacity:1;fill:url(#radialGradient904);fill-opacity:1;stroke:none;stroke-width:6.7733345;stroke-linecap:butt;stroke-miterlimit:4;stroke-dasharray:none;stroke-dashoffset:0;stroke-opacity:1" id="circle874" cx="92.058" cy="92.604" r="8.467"/><path style="opacity:.07;fill:#fff;fill-opacity:1;stroke:none;stroke-width:6.7733345;stroke-linecap:butt;stroke-miterlimit:4;stroke-dasharray:none;stroke-dashoffset:0;stroke-opacity:1" id="circle835" d="m 100.52513,92.60417 c 0,4.67601 -3.790654,8.46667 -8.466665,8.46667 5.291668,-4.23334 5.291672,-12.70001 0,-16.93333 4.676007,0 8.466665,3.79065 8.466665,8.46666 z"/></g><path id="path851" d="m 76.183459,109.53751 c -10e-7,1.16901 -0.236917,2.28267 -0.665354,3.29561 -2.509643,-0.91437 -4.830895,-1.2245 -7.801312,-1.17896 -3.704162,0 -5.291662,0.26459 -7.801312,1.17896 -0.428437,-1.01294 -0.665354,-2.1266 -0.665354,-3.29561 1.587501,-1.05833 5.027085,-1.58749 8.466669,-1.58749 3.439583,0 6.879166,0.52916 8.466663,1.58749 z" style="opacity:.07;fill:#000;fill-opacity:1;stroke:none;stroke-width:6.7733345;stroke-linecap:butt;stroke-miterlimit:4;stroke-dasharray:none;stroke-dashoffset:0;stroke-opacity:1"/><circle style="opacity:1;fill:none;fill-opacity:1;stroke:#1a1a1a;stroke-width:4.23333311;stroke-linecap:butt;stroke-miterlimit:4;stroke-dasharray:none;stroke-dashoffset:0;stroke-opacity:1" id="circle964" cx="67.717" cy="21.44" r="10.054"/><g id="g888" transform="rotate(45,67.716797,21.440298)"><circle style="opacity:1;fill:url(#radialGradient920);fill-opacity:1;stroke:none;stroke-width:.17953873;stroke-linecap:butt;stroke-miterlimit:4;stroke-dasharray:none;stroke-dashoffset:0;stroke-opacity:1" id="circle866" cx="67.717" cy="21.44" r="10.054"/><path style="opacity:.07;fill:#fff;fill-opacity:1;stroke:none;stroke-width:.17953873;stroke-linecap:butt;stroke-miterlimit:4;stroke-dasharray:none;stroke-dashoffset:0;stroke-opacity:1" id="circle853" d="m 67.716796,31.49447 c 5.552764,0 10.054169,-4.50141 10.054167,-10.05417 2e-6,-5.55276 -4.501403,-10.05417 -10.054167,-10.05417 6.349995,4.7625 6.349997,14.2875 0,20.10834 z"/></g><path style="opacity:.15;fill:#fff;fill-opacity:1;stroke:none;stroke-width:.78961575;stroke-linecap:butt;stroke-miterlimit:4;stroke-dasharray:none;stroke-dashoffset:0;stroke-opacity:1" id="path946" d="M 397.58203 278.33594 A 211.70056 211.70056 0 0 1 398.08984 292.62891 A 211.70056 211.70056 0 0 1 277.36523 483.55859 C 380.39403 479.05562 412.9375 439.1328 412.9375 319.91992 C 412.9375 303.76175 407.32948 289.92867 397.58203 278.33594 z" transform="scale(0.26458333)"/></svg>